# xmcd
#
# Track frame offsets: 
#        150
#        17466
#        32596
#        53104
#        72972
#        89936
#        107116
#        121670
#        142466
#        160194
#        168309
#        178720
#
# Disc length: 2668 seconds
#
# Revision: 0
# Processed by: cddbd v1.4PL0 Copyright (c) Steve Scherf et al.
# Submitted via: ExactAudioCopy v0.90a11
#
DISCID=a40a6a0c
DTITLE=Chris de Burgh - The Getaway
DYEAR=1900
DGENRE=
TTITLE0=Don't pay the ferryman
TTITLE1=Living on the island
TTITLE2=Crying and laughing
TTITLE3=I'm counting on you
TTITLE4=The Getaway
TTITLE5=Ship to shore
TTITLE6=All the love I have inside
TTITLE7=Borderline
TTITLE8=Where peaceful waters flow
TTITLE9=The revolution
TTITLE10=Light a fire
TTITLE11=Liberty
EXTD=
EXTT0=
EXTT1=
EXTT2=
EXTT3=
EXTT4=
EXTT5=
EXTT6=
EXTT7=
EXTT8=
EXTT9=
EXTT10=
EXTT11=
PLAYORDER=
